# xmcd
# Copyright (C) 1995-1998 Ti Kan
#
# Track frame offsets:
#       150
#       12606
#       26500
#       38401
#       50269
#       64888
#       75710
#       89037
#       101510
#       112449
#       124773
#       135663
#       149523
#       159001
#
# Disc length: 2314 seconds
#
# Revision: 0
# Processed by: cddbd v1.5.2PL0 Copyright (c) Steve Scherf et al.
# Submitted via: CD-Import v1.0
#
DISCID=be09080e
DTITLE=Open Season - Get Ready
DYEAR=09
DGENRE=
TTITLE0=Dial My Number
TTITLE1=Hold Me Tight
TTITLE2=I'm Ready
TTITLE3=Out On The Terrace
TTITLE4=Let It Go
TTITLE5=Watch Out
TTITLE6=Beach Bar Ska
TTITLE7=Give And Take
TTITLE8=Get Ready
TTITLE9=Bedbug
TTITLE10=Where Is The Police
TTITLE11=Returning
TTITLE12=What A Bright Day
TTITLE13=The Moon Is Waiting
EXTD=
EXTT0=
EXTT1=
EXTT2=
EXTT3=
EXTT4=
EXTT5=
EXTT6=
EXTT7=
EXTT8=
EXTT9=
EXTT10=
EXTT11=
EXTT12=
EXTT13=
PLAYORDER=
